<?xml version="1.0" encoding="utf-8"?>
<!-- Generator: Adobe Illustrator 16.0.0, SVG Export Plug-In . SVG Version: 6.00 Build 0)  -->
<!DOCTYPE svg PUBLIC "-//W3C//DTD SVG 1.1//EN" "http://www.w3.org/Graphics/SVG/1.1/DTD/svg11.dtd">
<svg version="1.1"
	 id="svg2" xmlns:dc="http://purl.org/dc/elements/1.1/" xmlns:cc="http://creativecommons.org/ns#" xmlns:rdf="http://www.w3.org/1999/02/22-rdf-syntax-ns#" xmlns:svg="http://www.w3.org/2000/svg" xmlns:sodipodi="http://sodipodi.sourceforge.net/DTD/sodipodi-0.dtd" xmlns:inkscape="http://www.inkscape.org/namespaces/inkscape" sodipodi:docname="shovel.svg" inkscape:version="0.48.2 r9819"
	 xmlns="http://www.w3.org/2000/svg" xmlns:xlink="http://www.w3.org/1999/xlink" x="0px" y="0px" width="280px" height="280px"
	 viewBox="198.824 -104.309 280 280" enable-background="new 198.824 -104.309 280 280" xml:space="preserve">
<sodipodi:namedview  inkscape:cy="20.180971" inkscape:cx="42.46745" inkscape:zoom="1.9040323" showgrid="true" guidetolerance="10" gridtolerance="10" objecttolerance="10" borderopacity="1" pagecolor="#ffffff" bordercolor="#666666" id="namedview6" inkscape:snap-grids="true" inkscape:current-layer="layer1" inkscape:window-maximized="1" inkscape:window-y="-8" inkscape:window-x="-8" inkscape:window-height="706" inkscape:window-width="1366" inkscape:pageshadow="2" inkscape:pageopacity="0">
	<inkscape:grid  id="grid16635" type="xygrid"></inkscape:grid>
</sodipodi:namedview>
<g id="layer2" inkscape:label="Layer" inkscape:groupmode="layer" display="none">
	<path id="path4703" inkscape:connector-curvature="0" display="inline" fill="none" stroke="#000000" d="M17.302,39.547l2.12-0.889
		l0.205,1.778l1.847-1.026"/>
</g>
<g id="layer1_1_" inkscape:label="draw" inkscape:groupmode="layer">
	<path id="rect16637_1_" inkscape:connector-curvature="0" d="M-33.606-46.43L-35-46.95c0,0-1.568-0.543-3.462-0.314
		c-1.367,0.165-3,0.89-4.177,2.412l-62.604-18.626l3.173-10.603c0.267-0.896-0.232-2.356-1.128-2.09c0,0-28.801-8.192-32.961,5.713
		c-4.16,13.904,24.293,23.254,24.293,23.254s1.823-0.231,2.091-1.127l3.174-10.603l62.459,18.584
		c0.062,1.965,1.035,3.55,2.124,4.451c1.502,1.241,3.224,1.634,3.224,1.634l1.449,0.331l0.439-1.467l2.874-9.609L-33.606-46.43z
		 M-37.599-44.118l-1.812,6.059c-0.255-0.138-0.326-0.123-0.573-0.326c-0.84-0.694-1.468-1.352-0.808-3.337
		c0.673-2.013,1.646-2.316,2.691-2.444C-37.836-44.197-37.837-44.131-37.599-44.118z"/>
</g>
<g id="layer1_2_" inkscape:label="draw" inkscape:groupmode="layer">
	<path id="rect16637_2_" inkscape:connector-curvature="0" d="M-114.66-26.701l1.353-0.618c0,0,1.493-0.725,2.67-2.226
		c0.85-1.083,1.493-2.751,1.248-4.659L-51.951-65.3l5.253,9.741c0.445,0.821,1.831,1.502,2.276,0.68
		c0,0,26.158-14.573,19.267-27.346c-6.89-12.773-33.621,0.734-33.621,0.734s-1.125,1.453-0.681,2.276l5.253,9.741l-57.307,31.025
		c-1.434-1.346-3.242-1.78-4.649-1.646c-1.939,0.185-3.435,1.124-3.435,1.124l-1.258,0.791l0.726,1.348l4.763,8.827L-114.66-26.701z
		 M-113.472-31.159l-3.002-5.565c0.277-0.083,0.317-0.144,0.635-0.175c1.085-0.104,1.994-0.083,2.931,1.788
		c0.948,1.899,0.474,2.802-0.175,3.631C-113.248-31.271-113.293-31.318-113.472-31.159z"/>
</g>
<ellipse fill="#679D34" cx="-201.5" cy="-109.034" rx="20" ry="30.466"/>
<g>
	<circle fill="#85B15D" cx="764.803" cy="46.581" r="135"/>
	<g>
		<g id="layer1" inkscape:label="draw" inkscape:groupmode="layer">
			<path id="rect16637" inkscape:connector-curvature="0" fill="#FFFFFF" d="M837.929,118.219l-2.034-2.324
				c0,0-2.334-2.54-6.021-3.992c-2.659-1.042-6.36-1.33-10.014,0.292l-96.065-95.776l16.254-16.252c1.371-1.373,1.9-4.535,0-4.933
				c0,0-44.57-43.374-65.886-22.059C652.848-5.511,695.64,39.635,695.64,39.635s3.562,1.375,4.935,0l16.257-16.25l95.845,95.559
				c-1.821,3.651-1.608,7.509-0.508,10.227c1.521,3.753,4.284,6.17,4.284,6.17l2.32,2.032l2.251-2.247l14.729-14.733
				L837.929,118.219z M828.35,118.507l-9.287,9.289c-0.331-0.503-0.473-0.548-0.725-1.16c-0.852-2.097-1.353-3.923,1.813-6.896
				c3.215-3.019,5.292-2.612,7.33-1.813C827.993,118.125,827.928,118.247,828.35,118.507z"/>
		</g>
		<g>
			<path id="path3780" sodipodi:nodetypes="ccssscccccsccccscccc" inkscape:connector-curvature="0" fill="#FFFFFF" d="
				M823.656-21.548c0,0-3.403,4.207-6.517,7.985c0.312,0.601,0.661,1.273,1.147,2.065c1.11,1.806,2.606,3.893,3.947,5.233
				c1.316,1.316,3.778,2.912,5.874,4.129c1.341,0.779,1.761,0.979,2.432,1.332c3.467-3.029,7.389-6.471,7.389-6.471L823.656-21.548z
				 M811.403,4.474c-1.614-1.609-4.524-3.507-5.553-4.176c-1.211,1.525-2.702,3.252-3.442,4.36
				c-5.057,7.575-1.034,3.224-8.632,11.972c-31.073,32.041-62.43,63.868-95.474,97.422c-2.282,1.774-7.198,1.351-7.527,4.223
				c1.635,2.505,5.848,6.799,8.39,7.929c3.174-0.187,3.946-5.049,6.194-7.298c32.453-32.458,60.602-61.582,94.44-96.116
				c7.46-6.23,6.912-4.916,12.567-8.264c1.893-1.215,2.436-2.168,3.987-3.448C815.893,10.375,813.164,6.228,811.403,4.474z"/>
			<path id="path3010" sodipodi:nodetypes="czczczcczcczcczcc" inkscape:connector-curvature="0" fill="#FFFFFF" d="M764.554-44.211
				c0,0,17.769,6.917,28.513,13.718c10.745,6.802,22.738,16.384,22.738,16.384s2.938,5.875,5.874,8.812s8.812,5.875,8.812,5.875
				s9.938,12.142,16.645,22.864c6.709,10.724,14.258,33.224,14.258,33.224l-1.345,0.805c0,0-8.903-18.379-17.485-30.935
				c-8.581-12.556-19.416-18.615-19.416-18.615l-5.874,2.937c0,0-3.068-4.762-5.028-6.722c-1.957-1.957-6.722-5.027-6.722-5.027
				l2.938-5.875c0,0-8.602-11.779-17.007-18.48c-8.405-6.705-27.842-17.755-27.842-17.755L764.554-44.211z"/>
		</g>
	</g>
</g>
<circle fill="#D78431" cx="338.824" cy="35.691" r="135"/>
<circle fill="#627AAD" cx="158.437" cy="-292.309" r="135"/>
<g>
	<path fill="none" stroke="#FFFFFF" stroke-width="10" stroke-miterlimit="10" d="M131.784-241.959c0,4.4-3.6,8-8,8H86.108
		c-4.4,0-8-3.6-8-8v-74.823c0-4.4,3.6-8,8-8h37.676c4.4,0,8,3.6,8,8V-241.959z"/>
</g>
<path fill="#FFFFFF" d="M104.947-262.554c4.477,0,8.102,3.625,8.102,8.103c0,4.474-3.625,8.102-8.102,8.102
	c-4.474,0-8.102-3.628-8.102-8.102C96.846-258.929,100.474-262.554,104.947-262.554z"/>
<g>
	<path fill="#FFFFFF" d="M197.084-328.639c0.065-9.571,0.161-28.791-0.044-36.416c-0.279-10.343-27.117-6.43-29.913-6.43
		c-2.795,0-21.601,37.843-21.601,37.843c-1.958,3.94-5.841,9.949-8.629,13.353l-0.044,0.054c-2.788,3.404-5.069,9.789-5.069,14.189
		v48.644c0,4.4,2.316,10.316,5.148,13.147c2.831,2.831,13.893,10.295,18.293,10.295h75.539c4.4,0,8-3.6,8-8v-78.68c0-4.4-3.6-8-8-8
		H197.084z"/>
</g>
<g>
	<path fill="#FFFFFF" d="M429.499,10.643c-2.133-8.627-5.384-14.508-9.047-21.275c-42.504-17.73-120.855-18.014-163.313,0
		c-2.967,5.871-6.283,12.724-8.47,20.995c-1.689,6.432-4.019,19.879,0.271,25.422c3.259,4.271,12.576,4.212,19.596,3.648
		c10.028-0.725,17.386-4.457,20.105-11.005c2.604-6.103,0.198-16.775,3.177-23.02c1.36-2.828,4.853-6.172,7.952-7.911
		c14.714-8.176,51.015-7.91,69.621-3.119c6.716,1.724,14.182,4.608,16.692,9.686c3.57,7.311,0.281,20.402,3.962,26.497
		c2.304,3.854,7.455,6.692,12.167,7.869c7.396,1.785,19.157,2.211,24.83-1.331c0.84-0.871,1.653-1.783,2.416-2.603
		C432.421,28.664,430.864,16.349,429.499,10.643"/>
	<path fill="#FFFFFF" d="M410.151,95.419c-0.745-10.78,1.396-19.124-1.309-26.481c-1.461-3.887-5.299-7.897-8.241-11.52
		c-7.815-9.756-14.567-17.702-22.48-27.265c-1.527-1.823-3.897-4.22-4.228-5.763c-1.185-5.345,0.901-10.791,0-16.01h-17.457
		c-0.938,4.014,0.522,10.327-0.816,13.875c-4.885,0.953-11.077,0.541-16.936,0.541c-5.991,0-12.065,0.603-16.697-0.769
		c-1.113-3.629-0.258-9.193-0.522-13.647h-17.18c-0.376,0.104-0.557,0.363-0.557,0.788v15.717
		c-5.75,7.164-11.554,14.305-17.723,21.79c-2.679,3.226-5.791,6.442-8.687,9.918c-0.231,0.294-0.528,0.587-0.763,0.865
		c-2.993,3.653-5.667,7.579-7.218,11.994c-2.553,7.315-1.241,15.977-1.603,25.966H410.151z"/>
</g>
</svg>
