<?xml version="1.0" encoding="utf-8"?>
<!-- Generator: Adobe Illustrator 16.0.0, SVG Export Plug-In . SVG Version: 6.00 Build 0)  -->
<!DOCTYPE svg PUBLIC "-//W3C//DTD SVG 1.1//EN" "http://www.w3.org/Graphics/SVG/1.1/DTD/svg11.dtd">
<svg version="1.1" id="Layer_1" xmlns="http://www.w3.org/2000/svg" xmlns:xlink="http://www.w3.org/1999/xlink" x="0px" y="0px"
	 width="280px" height="280.002px" viewBox="-253.114 -100.572 280 280.002" enable-background="new -253.114 -100.572 280 280.002"
	 xml:space="preserve">
<g id="XMLID_1_">
	<g>
		<path d="M166.002,59.131c-26.356,16.593-33.67-6.662-13.127-20.857c-10.203,1.632-15.76,7.264-16.672,16.885
			c-2.799-2.242-3.967-5.115-3.508-8.607c0.445-2.229,0.885-4.464,1.332-6.693c9.725-27.063,42.315-14.488,53.955-35.562
			C184.271,22.211,184.141,47.7,166.002,59.131z"/>
	</g>
	<g>
		<path fill="none" stroke="#000000" stroke-linecap="round" stroke-miterlimit="10" d="M134.027,39.858
			c9.725-27.063,42.315-14.488,53.955-35.562"/>
		<path fill="none" stroke="#000000" stroke-miterlimit="10" d="M132.695,46.55c0.445-2.229,0.885-4.464,1.332-6.693"/>
		<path fill="none" stroke="#000000" stroke-miterlimit="10" d="M187.982,4.296c-3.711,17.915-3.842,43.404-21.979,54.834
			c-26.356,16.593-33.671-6.662-13.127-20.857c-10.203,1.632-15.761,7.264-16.671,16.885c-2.799-2.242-3.969-5.115-3.51-8.607"/>
	</g>
</g>
<g id="XMLID_2_">
	<g>
		<path d="M158.681,83.162c0.238-1.361-0.584-2.865-0.781-3.93c-2.713-7.551-7.67-11.746-16.896-13.471
			c-6.593-1.23-14.407,3.32-23.407,3.32c10.836,6.764,11.625,15.219,21.531,21.463c3.785,2.383,11.735,5.482,15.62,1.75
			c0.501-10.023-8.694-12.512-13.29-15.688c6.719,2.723,14.458,4.781,15.162,11.604C158.366,87.996,158.681,84.498,158.681,83.162z"
			/>
	</g>
	<g>
		<path fill="none" stroke="#000000" stroke-linecap="round" stroke-miterlimit="10" d="M157.897,79.232
			c-2.713-7.551-7.67-11.746-16.895-13.471c-6.593-1.23-14.406,3.32-23.406,3.32"/>
		<path fill="none" stroke="#000000" stroke-miterlimit="10" d="M158.681,83.162c0.238-1.361-0.584-2.865-0.781-3.93"/>
		<path fill="none" stroke="#000000" stroke-linecap="round" stroke-miterlimit="10" d="M117.597,69.084
			c10.836,6.762,11.625,15.219,21.531,21.463c3.785,2.383,11.735,5.48,15.62,1.75c0.501-10.023-8.694-12.512-13.29-15.689
			c6.719,2.723,14.458,4.783,15.162,11.605c1.747-0.217,2.061-3.717,2.061-5.053"/>
	</g>
</g>
<g>
	<g>
		<path d="M135.184,59.455c-1.497,7.293-3.02,15.105-2.309,22.57c0.688,7.236,3.493,12.771,5.934,19.502
			c0.886,2.441,3.013,2.17,3.968,0c1.233-2.807,1.022-6.195,0-9.016c-1-2.758-2.04-5.488-3.308-8.133
			c-0.787-1.641-0.578-1.045-0.934-3.594c-0.677-4.852,0.516-10.139,1.492-14.896c0.559-2.723,0.777-6.35-1.006-8.723
			C137.312,54.889,135.53,57.768,135.184,59.455L135.184,59.455z"/>
	</g>
</g>
<g>
	<defs>
		<circle id="SVGID_1_" cx="-112.613" cy="-2.196" r="117.65"/>
	</defs>
	<clipPath id="SVGID_2_">
		<use xlink:href="#SVGID_1_"  overflow="visible"/>
	</clipPath>
	<path clip-path="url(#SVGID_2_)" fill="#85B15D" d="M-93.036,167.106c73.608,11.035,85.585-62.886,85.585-62.886
		s-99.403,7.464-89.211,57.837c-3.71,2.857-6.79,5.941-9.602,9.522l-0.362-35.043v-26.95c0,0,1.696-9.339,11.218-19.387
		C-19.423,103.021-7.44,27.354-7.44,27.354s-96.903,7.548-89.439,55.957c-3.481,2.723-6.571,5.59-9.378,9.289l-3.938-40.087
		c61.765-35.619-3.536-102.438-3.536-102.438s-63.508,66.819-2.805,101.808l-3.849,40.717c-2.284-3.035-4.607-5.802-7.96-8.312
		c8.769-49.386-89.166-56.935-89.166-56.935s11.804,74.64,86.436,62.846c9.748,10.048,11.494,19.387,11.494,19.387v26.95
		l-0.806,35.043c-2.286-3.219-5.138-5.946-8.225-8.624c12.071-51.271-88.898-58.73-88.898-58.73s11.804,73.033,84.38,62.886
		c11.226,10.723,13.549,21.5,13.549,21.5v25.605l-0.806,35.267c-2.286-3.402-5.138-6.17-8.225-8.848
		c12.066-51.444-88.903-58.601-88.903-58.601s11.804,72.894,84.38,62.617c11.226,11.169,13.549,21.718,13.549,21.718v25.388
		l-0.806,35.312c-2.287-2.996-5.138-5.817-8.225-8.406c12.332-51.663-88.898-58.864-88.898-58.864s11.804,72.497,84.11,62.797
		c11.496,10.776,13.819,21.494,13.819,21.494v68.748h6.207h6.75v-68.743c0,0,2.059-10.718,13.594-21.494
		c73.608,11.224,85.585-62.792,85.585-62.792s-99.666,7.196-89.211,57.882c-3.71,2.684-6.79,5.629-9.602,9.384l-0.362-35.312V266.37
		c0,0,2.058-10.544,13.594-21.712c73.608,11.168,85.59-62.618,85.59-62.618s-99.413,7.151-89.221,57.698
		c-3.71,2.772-6.799,6.114-9.606,9.74l-0.362-35.267v-25.605C-106.63,188.606-104.571,177.834-93.036,167.106z"/>
</g>
<path fill="none" stroke="#878787" stroke-width="5" stroke-miterlimit="10" d="M22.386,38.426
	c0,74.558-60.446,135.003-135.001,135.003c-74.558,0-134.999-60.445-134.999-135.003c0-74.558,60.44-134.999,134.999-134.999
	C-38.06-96.572,22.386-36.131,22.386,38.426z"/>
<g>
	<defs>
		<path id="SVGID_3_" d="M22.386,16.585c0,74.558-60.446,135.004-135.001,135.004c-74.558,0-134.999-60.446-134.999-135.004
			c0-74.558,60.44-134.999,134.999-134.999C-38.06-118.414,22.386-57.973,22.386,16.585z"/>
	</defs>
	<clipPath id="SVGID_4_">
		<use xlink:href="#SVGID_3_"  overflow="visible"/>
	</clipPath>
	<path clip-path="url(#SVGID_4_)" fill="#837255" d="M-160.859,156.082c0-26.643,21.601-48.246,48.248-48.246
		c26.642,0,48.246,21.604,48.246,48.246"/>
</g>
</svg>
